<svg width="242" height="46" viewBox="0 0 100% 100%" xmlns="http://www.w3.org/2000/svg">
    <path
        d="M10.449 62.5.439 58.887l10.499-10.01v-9.766q0-7.519-.635-23.584a1910.902 1910.902 0 0 0-5.152-2.368A166.957 166.957 0 0 1 0 10.693L8.398 0q13.379 3.906 19.288 5.762a100.922 100.922 0 0 0-.245 3.125q-.097 1.562-.244 3.027L42.041 0a49.771 49.771 0 0 1 9.107 8.745 33.171 33.171 0 0 1 7.495 21.089 35.425 35.425 0 0 1-.196 3.711 66.391 66.391 0 0 1-5.878 21.083q-3.671 8.041-9.529 16.153a119.535 119.535 0 0 1-1.976 2.656l-15.673-5.615q.422 7.56 1.793 10.288a5.725 5.725 0 0 0 .111.21 969.691 969.691 0 0 0-4.367 2.707q-4.878 3.04-11.301 7.106a3370.086 3370.086 0 0 0-6.158 3.908q3.808-11.035 4.98-29.541Zm165.918-31.006 7.373-9.277 10.938 5.127q-.537 2.002-1.245 3.906-.708 1.904-.708 3.906l-.684 19.824v.293a6.39 6.39 0 0 0 .261 1.867 5.108 5.108 0 0 0 1.204 2.064q1.465 1.538 3.369 2.319l-9.766 11.915-10.644-9.278-12.695 9.278-10.303-8.35a14.518 14.518 0 0 0 1.612-2.316q.839-1.52 1.101-3.041a8.12 8.12 0 0 0 .119-1.381l.342-22.168a3.533 3.533 0 0 0-.563-1.85q-.863-1.419-3.051-2.838l7.422-9.277 10.889 5.127q-.537 2.002-1.245 3.906-.708 1.904-.708 3.906l-.635 19.824a5.644 5.644 0 0 0-.005.235q0 2.239 1.763 4.697a1.871 1.871 0 0 0 1.353.724 2.444 2.444 0 0 0 .209.009 4.254 4.254 0 0 0 1.438-.296q2.101-.768 5.409-3.533a53.177 53.177 0 0 0 .722-.615l.341-20.019a3.533 3.533 0 0 0-.562-1.85q-.863-1.419-3.051-2.838Zm-27.588 30.029-10.888 11.915a3970.578 3970.578 0 0 0-7.178-5.494 1005.709 1005.709 0 0 1-7.129-5.493 20.55 20.55 0 0 0 2.816-2.987q1.467-1.936 2.108-3.964a10.588 10.588 0 0 0 .496-3.01l.195-20.263h-4.248v-3.858a1007.167 1007.167 0 0 0 3.54-5.112q5.64-8.194 13.257-19.546l2.49.391q-1.067 5.057-1.891 8.417a136.233 136.233 0 0 1-.086.347q-.855 3.443-1.05 8.57h8.594v10.546h-8.741l-.097 20.801a31.514 31.514 0 0 0 .023 1.262q.1 2.492.636 2.889.622.46 6.441 4.14a1797.503 1797.503 0 0 0 .712.449Zm59.131-39.306 10.156 7.129 6.348-6.446q6.441 4.454 10.148 8.993a25.558 25.558 0 0 1 3.133 4.777l-7.812 10.449q-1.319-3.857-3.589-6.787a15.828 15.828 0 0 0-1.916-2.031q-2.167-1.956-5.628-3.975l-1.611 2.197-.928 16.651a3.679 3.679 0 0 0-.006.212q0 2.296 2.857 4.751a17.246 17.246 0 0 0 .372.31q2.617 2.125 4.321 3.07a9.402 9.402 0 0 0 .903.446l-8.105 11.475-15.137-11.768a13.852 13.852 0 0 0 1.731-2.579 9.677 9.677 0 0 0 1.101-4.159l-.098-18.75a3.949 3.949 0 0 0-.621-1.831q-.759-1.233-2.437-2.466a17.336 17.336 0 0 0-.555-.391l7.373-9.277Zm162.94 0 10.156 7.129 6.348-6.446q6.44 4.454 10.147 8.993a25.558 25.558 0 0 1 3.134 4.777l-7.813 10.449q-1.318-3.857-3.589-6.787a15.828 15.828 0 0 0-1.915-2.031q-2.168-1.956-5.629-3.975l-1.611 2.197-.928 16.651a3.679 3.679 0 0 0-.006.212q0 2.296 2.857 4.751a17.246 17.246 0 0 0 .372.31q2.618 2.125 4.322 3.07a9.402 9.402 0 0 0 .903.446l-8.106 11.475-15.137-11.768a13.852 13.852 0 0 0 1.731-2.579 9.677 9.677 0 0 0 1.102-4.159l-.098-18.75a3.949 3.949 0 0 0-.621-1.831q-.76-1.233-2.438-2.466a17.336 17.336 0 0 0-.554-.391l7.373-9.277ZM118.115 57.275l-16.504 16.26q-9.988-6.617-13.591-14.63a22.886 22.886 0 0 1-2.034-9.491 22.193 22.193 0 0 1 2.125-9.344 29.44 29.44 0 0 1 2.27-4.035 42.819 42.819 0 0 1 3.656-4.676q4.095-4.601 10.504-9.728a222.362 222.362 0 0 0 8.643 5.347 959.131 959.131 0 0 1 8.74 5.2l-9.766 8.593a103.182 103.182 0 0 1-1.714-1.079q-1.757-1.132-2.949-2.021-1.733-1.294-3.662-2.173a19.944 19.944 0 0 0-.871-.374q-1.265-.505-1.912-.505a1.772 1.772 0 0 0-.715.161q-.52.229-1.081.781a6.229 6.229 0 0 0-.035.035 11.236 11.236 0 0 0-2.012 2.728 9.058 9.058 0 0 0-1.016 4.205q0 6.536 7.334 13.931a48.68 48.68 0 0 0 .577.571 9.447 9.447 0 0 0 1.175.938q1.377.918 2.682.918a5.055 5.055 0 0 0 2.985-1.021q.832-.595 1.619-1.537a15.14 15.14 0 0 0 1.353-1.934 93.909 93.909 0 0 0 2.075 1.44 506.382 506.382 0 0 1 2.124 1.44ZM263.77 73.438l-23.389-9.327a85.214 85.214 0 0 0 1.307-13.776 94.489 94.489 0 0 0 .011-1.482 92.334 92.334 0 0 0-.816-12.036 107.736 107.736 0 0 0-.697-4.542l16.845-9.912v-.146l.098.049h.049l18.994 13.623-19.776 20.8a9.129 9.129 0 0 0 1.429 1.391q1.413 1.086 3.015 1.246a63.025 63.025 0 0 0 1.577.139q1.41.105 2.451.105 1.215 0 2.774-.1a69.219 69.219 0 0 0 .986-.071q1.494-.117 3.461-.2a166.618 166.618 0 0 1 1.886-.068q-2.588 3.613-5.127 7.178l-5.078 7.129Zm84.57 0-23.389-9.327a85.214 85.214 0 0 0 1.307-13.776 94.489 94.489 0 0 0 .012-1.482 92.334 92.334 0 0 0-.817-12.036 107.736 107.736 0 0 0-.697-4.542l16.846-9.912v-.146l.097.049h.049l18.994 13.623-19.775 20.8a9.129 9.129 0 0 0 1.428 1.391q1.413 1.086 3.015 1.246a63.025 63.025 0 0 0 1.578.139q1.409.105 2.45.105 1.215 0 2.774-.1a69.219 69.219 0 0 0 .986-.071q1.494-.117 3.461-.2a166.618 166.618 0 0 1 1.886-.068q-2.588 3.613-5.127 7.178l-5.078 7.129Zm122.168 0-23.389-9.327a85.214 85.214 0 0 0 1.307-13.776 94.489 94.489 0 0 0 .012-1.482 92.334 92.334 0 0 0-.817-12.036 107.736 107.736 0 0 0-.697-4.542l16.846-9.912v-.146l.097.049h.049l18.994 13.623-19.775 20.8a9.129 9.129 0 0 0 1.428 1.391q1.413 1.086 3.015 1.246a63.025 63.025 0 0 0 1.578.139q1.409.105 2.45.105 1.215 0 2.774-.1a69.219 69.219 0 0 0 .986-.071q1.494-.117 3.461-.2a166.618 166.618 0 0 1 1.886-.068q-2.588 3.613-5.127 7.178l-5.078 7.129ZM319.141 53.613l-16.162 20.655a2154.008 2154.008 0 0 1-7.276-2.827q-10.906-4.263-15.43-6.207a340.164 340.164 0 0 0 .783-1.551q.759-1.514 1.316-2.671a99.742 99.742 0 0 0 .465-.978 6.727 6.727 0 0 0 .404-1.185q.484-1.907.62-5.438a65.499 65.499 0 0 0 .026-.774l.049-10.01q0-3.706-2.879-5.962a9.459 9.459 0 0 0-.32-.239 941.059 941.059 0 0 0-1.457-1.044q-2.053-1.467-3.01-2.13l10.888-11.231 9.424 8.545 6.885-8.545a17.507 17.507 0 0 1 3.157 1.812q2.181 1.551 4.411 3.95a44.203 44.203 0 0 1 5.55 7.238q3.208 5.299 4.157 10.86a28 28 0 0 1 .059.359 13.614 13.614 0 0 1 .158 1.217 10.789 10.789 0 0 1 .037.883 9.404 9.404 0 0 1-.261 2.275 6.715 6.715 0 0 1-1.594 2.998Zm83.447 10.742 8.496-8.886q-4.59-6.153-6.494-13.916a63.932 63.932 0 0 1 6.463-8.762q4.596-5.287 10.871-10.574a213.72 213.72 0 0 0 9.048 2.27q4.773 1.094 10.117 2.124a355.844 355.844 0 0 0 1.538.293l1.172-.293-9.18 9.424 8.008 20.069a73.963 73.963 0 0 0-11.289 10.527 91.795 91.795 0 0 0-5.41 6.807 71.961 71.961 0 0 0-9.871-4.793q-6.128-2.448-13.469-4.29ZM62.793 31.494l7.373-9.277 10.938 5.127q-.586 2.002-1.27 3.906-.684 1.904-.684 3.906l-.683 19.824v.44a5.899 5.899 0 0 0 .299 1.915 5.03 5.03 0 0 0 1.166 1.894q1.464 1.513 3.369 2.294l-9.766 11.915-10.351-8.35a14.518 14.518 0 0 0 1.612-2.316q.838-1.52 1.101-3.041a8.12 8.12 0 0 0 .119-1.381l.341-22.168a3.575 3.575 0 0 0-.563-1.863q-.718-1.189-2.354-2.378a16.802 16.802 0 0 0-.647-.447ZM25.195 51.318l16.065 7.471h.293q6.054 0 6.054-9.228a44.715 44.715 0 0 0-1.564-11.528 54.222 54.222 0 0 0-1.463-4.635q-2.789-7.646-7.4-12.268a24.486 24.486 0 0 0-.803-.769 9.408 9.408 0 0 0-1.256-.994q-1.398-.91-2.748-.91a4.667 4.667 0 0 0-2.482.762q-1.738 1.078-3.426 3.681a814.768 814.768 0 0 0-.748 13.346q-.288 6.093-.438 11.525a459.391 459.391 0 0 0-.084 3.547ZM296.68 40.576l-.293 16.26a87.567 87.567 0 0 0 2.737 1.218q4.514 1.907 6.345 1.907.363 0 .642-.084a1.577 1.577 0 0 0 .041-.014 6.535 6.535 0 0 0 1.977-.782q1.771-1.098 2.131-3.329a7.607 7.607 0 0 0 .092-1.211q0-1.074-.245-2.393a28.823 28.823 0 0 0-1.442-5.014 20.832 20.832 0 0 0-2.952-5.239 32.522 32.522 0 0 0-3.166-3.514 24.179 24.179 0 0 0-3.572-2.834 6.937 6.937 0 0 0-2.292 4.936 8.285 8.285 0 0 0-.003.093ZM82.666 8.301 64.258 21.777 68.164 2.49l14.502 5.811ZM426.318 44.58 414.6 56.641q5.55 3.187 10.392 4.036a19.807 19.807 0 0 0 3.426.309q4.82 0 4.929-3.357a4.846 4.846 0 0 0 .003-.158 5.408 5.408 0 0 0-.337-1.669q-.912-2.698-4.296-7.765a128.787 128.787 0 0 0-2.399-3.457Zm-171.875 8.057 7.862-8.301q.591-.626.761-1.253a1.921 1.921 0 0 0 .069-.505q0-.879-.855-2.246-.764-1.223-1.548-2.055a8.887 8.887 0 0 0-.185-.191q-2.241-1.957-3.809-2.488a3.369 3.369 0 0 0-1.074-.198q-2.612 0-2.815 6.562a37.318 37.318 0 0 0-.017 1.153 27.639 27.639 0 0 0 1.453 8.755 30.797 30.797 0 0 0 .012.034q0 .354.095.613a1.164 1.164 0 0 0 .051.12Zm84.571 0 7.861-8.301q.592-.626.762-1.253a1.921 1.921 0 0 0 .068-.505q0-.879-.854-2.246-.765-1.223-1.549-2.055a8.887 8.887 0 0 0-.185-.191q-2.241-1.957-3.808-2.488a3.369 3.369 0 0 0-1.075-.198q-2.611 0-2.815 6.562a37.318 37.318 0 0 0-.017 1.153 27.639 27.639 0 0 0 1.454 8.755 30.797 30.797 0 0 0 .011.034q0 .354.095.613a1.164 1.164 0 0 0 .052.12Zm122.168 0 7.861-8.301q.591-.626.761-1.253a1.921 1.921 0 0 0 .069-.505q0-.879-.854-2.246-.765-1.223-1.549-2.055a8.887 8.887 0 0 0-.185-.191q-2.241-1.957-3.808-2.488a3.369 3.369 0 0 0-1.075-.198q-2.611 0-2.815 6.562a37.318 37.318 0 0 0-.017 1.153 27.639 27.639 0 0 0 1.454 8.755 30.797 30.797 0 0 0 .011.034q0 .354.095.613a1.164 1.164 0 0 0 .052.12Zm-40.479-7.178 9.473-9.766a163.056 163.056 0 0 0-3.449-.894q-5.678-1.401-7.928-1.401a22.797 22.797 0 0 0-.981.02q-1.959.085-2.217.542-.318.561-.318 1.05a5.246 5.246 0 0 0 .295 1.565q.8 2.48 3.765 6.91a93.736 93.736 0 0 0 1.36 1.974Z"
        fill-rule="evenodd" stroke="#000" stroke-width=".945"
        style="stroke:currentColor;stroke-width:.25mm;fill:currentColor" transform="scale(0.5)"
    />
</svg>
